# xmcd CD database file
#
# Track frame offsets:
#	150
#	29335
#	55571
#	87911
#	114560
#	139447
#	166387
#	189254
#	220394
#	243884
#	282788
#
# Disc length: 4036 seconds
#
# Revision: 2
# Processed by: cddbd v1.4PL0 Copyright (c) Steve Scherf et al.
# Submitted via: CDex 1.50beta9
#
DISCID=960fc20b
DTITLE=Hue and Cry - Live 99
DYEAR=1999
DGENRE=Jazz
TTITLE0=Once in a lifetime
TTITLE1=All true man
TTITLE2=She moves through the wires
TTITLE3=Making whoopee
TTITLE4=Perfect life
TTITLE5=Sonny cried
TTITLE6=Strange relationship
TTITLE7=Free like you
TTITLE8=I didn't know
TTITLE9=Stars crash down
TTITLE10=Autumn leaves
EXTD=YEAR: 1999
EXTT0=
EXTT1=
EXTT2=
EXTT3=
EXTT4=
EXTT5=
EXTT6=
EXTT7=
EXTT8=
EXTT9=
EXTT10=
PLAYORDER=
